<svg width="1200" height="320" viewBox="0 0 1200 320" fill="none" xmlns="http://www.w3.org/2000/svg" role="img" aria-labelledby="title desc">
  <title id="title">StreamPilot Wordmark</title>
  <desc id="desc">StreamPilot logo with icon and wordmark.</desc>
  <defs>
    <linearGradient id="g" x1="67" y1="56" x2="251" y2="240" gradientUnits="userSpaceOnUse">
      <stop stop-color="#22D3EE"/>
      <stop offset="0.55" stop-color="#3B82F6"/>
      <stop offset="1" stop-color="#A855F7"/>
    </linearGradient>
    <filter id="shadow" x="-20%" y="-20%" width="140%" height="140%">
      <feDropShadow dx="0" dy="20" stdDeviation="18" flood-color="#2563EB" flood-opacity="0.22"/>
    </filter>
  </defs>
  <rect width="1200" height="320" rx="48" fill="#020617"/>
  <g transform="translate(44 44)" filter="url(#shadow)">
    <rect width="232" height="232" rx="56" fill="#07111F" stroke="#1D4ED8" stroke-opacity="0.35" stroke-width="3"/>
    <circle cx="116" cy="116" r="80" stroke="url(#g)" stroke-width="10" stroke-linecap="round" stroke-dasharray="250 70"/>
    <path d="M116 24L128 58H104L116 24Z" fill="url(#g)"/>
    <path d="M116 208L104 174H128L116 208Z" fill="url(#g)"/>
    <path d="M24 116L58 104V128L24 116Z" fill="url(#g)"/>
    <path d="M208 116L174 128V104L208 116Z" fill="url(#g)"/>
    <path d="M95 79C95 70 105 65 113 70L159 102C171 110 171 122 159 130L113 162C105 167 95 162 95 153V79Z" fill="url(#g)"/>
    <path d="M142 74C156 79 166 90 170 104" stroke="#22D3EE" stroke-width="8" stroke-linecap="round"/>
    <path d="M141 99C147 102 151 106 154 112" stroke="#3B82F6" stroke-width="7" stroke-linecap="round"/>
  </g>
  <text x="316" y="148" fill="white" font-family="Inter, Segoe UI, Arial, sans-serif" font-size="84" font-weight="900" letter-spacing="-3">Stream<tspan fill="#38BDF8">Pilot</tspan></text>
  <text x="322" y="205" fill="#94A3B8" font-family="Inter, Segoe UI, Arial, sans-serif" font-size="28" font-weight="600" letter-spacing="0.5">M3U / XMLTV autorizado</text>
</svg>
